<svg width="21" height="21" viewBox="0 0 21 21" xmlns="http://www.w3.org/2000/svg">
<path d="M16.4166 0.534828L16.1494 0.7655L10.2183 6.69745L4.28856 0.771994C3.35815 -0.158269 1.84966 -0.158269 0.919249 0.771994C0.0734215 1.61769 -0.00347328 2.94106 0.688566 3.8736L0.919249 4.14077L6.84787 10.0673L0.914307 16.0013C-0.0160065 16.9317 -0.0158482 18.4399 0.914658 19.3701C1.76057 20.2157 3.08416 20.2925 4.01678 19.6004L4.28397 19.3698L10.2151 13.434L16.1416 19.3607C17.072 20.291 18.5805 20.291 19.5109 19.3607C20.3568 18.515 20.4336 17.1917 19.7416 16.2591L19.5109 15.9919L13.5855 10.0641L19.519 4.13393C20.4494 3.20357 20.4492 1.69531 19.5187 0.765149C18.6728 -0.0804566 17.3492 -0.1572 16.4166 0.534828Z"/>
</svg>
